<svg xmlns="http://www.w3.org/2000/svg" xmlns:xlink="http://www.w3.org/1999/xlink" version="1.1" width="1000" height="1000" viewBox="0 0 1000 1000" xml:space="preserve">
<desc>Created with Fabric.js 3.5.0</desc>
<defs>
</defs>
<rect x="0" y="0" width="100%" height="100%" fill="#ffffff"/>
<g transform="matrix(0 1 -1 0 500 500)" id="54682">
<g style="">
		<g transform="matrix(0 -9.625 9.625 0 20.3925 46.6821)" id="path7326-72">
<path style="stroke: rgb(0,0,0); stroke-width: 0.3378; stroke-dasharray: none; stroke-linecap: round; stroke-dashoffset: 0; stroke-linejoin: round; stroke-miterlimit: 4; is-custom-font: none; font-file-url: none; fill: rgb(200,113,55); fill-rule: evenodd; opacity: 1;" transform=" translate(-551.9811, -40.8895)" d="m 510.05036 39.709207 h 83.87248 c 0.13243 0 0.23905 0.0828 0.23905 0.185639 v 1.989355 c 0 0.102844 -0.10662 0.185638 -0.23905 0.185638 h -82.66189 c -0.13243 0 -0.18444 -0.0959 -0.23905 -0.185638 l -1.21059 -1.989355 c -0.0546 -0.08974 0.10663 -0.185639 0.23905 -0.185639 z" stroke-linecap="round"/>
</g>
		<g transform="matrix(0 -9.625 9.625 0 -9.1125 21.5119)" id="rect7328-3">
<rect style="stroke: rgb(0,0,0); stroke-width: 0.3479; stroke-dasharray: none; stroke-linecap: round; stroke-dashoffset: 0; stroke-linejoin: round; stroke-miterlimit: 4; is-custom-font: none; font-file-url: none; fill: rgb(200,113,55); fill-rule: evenodd; opacity: 1;" x="-44.81655" y="-1.88515" rx="0.18563828" ry="0.18563828" width="89.6331" height="3.7703"/>
</g>
		<g transform="matrix(0 -9.625 9.625 0 0.0002 -373.6319)" id="path7330-5">
<path style="stroke: rgb(0,0,0); stroke-width: 0.3309; stroke-dasharray: none; stroke-linecap: round; stroke-dashoffset: 0; stroke-linejoin: round; stroke-miterlimit: 4; is-custom-font: none; font-file-url: none; fill: rgb(212,0,0); fill-rule: evenodd; opacity: 1;" transform=" translate(-595.6505, -38.7708)" d="m 603.89176 38.770815 c 0 2.951501 -0.61247 5.344164 -6.25883 5.344161 c -5.64634 0 -10.22361 -2.392663 -10.22361 -5.344161 c 0 -2.951498 4.57727 -5.344162 10.22361 -5.344164 c 5.64636 -0.000002 6.25883 2.392663 6.25883 5.344164 z" stroke-linecap="round"/>
</g>
		<g transform="matrix(0 -9.625 9.625 0 19.2357 -365.1035)" id="path7332-6">
<path style="stroke: rgb(0,0,0); stroke-width: 0.231; stroke-dasharray: none; stroke-linecap: round; stroke-dashoffset: 0; stroke-linejoin: round; stroke-miterlimit: 4; is-custom-font: none; font-file-url: none; fill: rgb(212,0,0); fill-rule: evenodd; opacity: 1;" transform=" translate(-594.7645, -40.7693)" d="m 599.39355 41.142475 c -3.76153 0.692739 -7.23946 0.216896 -9.25816 -1.064458" stroke-linecap="round"/>
</g>
</g>
</g>
</svg>